# xmcd
#
# Track frame offsets:
#	150
#	18625
#	33090
#	45435
#	77575
#	98543
#	120208
#	149495
#	168230
#	188825
#	200185
#
# Disc length: 3120 seconds
#
# Revision: 1
# Processed by: cddbd v1.5.1PL0 Copyright (c) Steve Scherf et al.
# Submitted via: CDex 1.50Beta5
#
DISCID=840c2e0b
DTITLE=さだまさし - 月虹 over the Moon-bow 第二夜 橙
DYEAR=1900
DGENRE=Folk
TTITLE0=朝刊2002
TTITLE1=笑顔同封
TTITLE2=殺風景
TTITLE3=トーク
TTITLE4=雪の朝
TTITLE5=紫陽花の詩
TTITLE6=トーク
TTITLE7=19歳
TTITLE8=ほおずき
TTITLE9=トーク
TTITLE10=フレディもしくは三教街-ロシア租界にて-
EXTD=
EXTT0=
EXTT1=
EXTT2=
EXTT3=
EXTT4=
EXTT5=
EXTT6=
EXTT7=
EXTT8=
EXTT9=
EXTT10=
PLAYORDER=
